<svg xmlns="http://www.w3.org/2000/svg" viewBox="0 0 512 512">
  <defs>
    <linearGradient id="bg" x1="0" y1="0" x2="1" y2="1">
      <stop offset="0" stop-color="#111827"/><stop offset="1" stop-color="#030509"/>
    </linearGradient>
    <linearGradient id="key" x1="0" y1="0" x2="0" y2="1">
      <stop offset="0" stop-color="#22d3ee"/><stop offset="1" stop-color="#7c3aed"/>
    </linearGradient>
  </defs>
  <rect width="512" height="512" rx="112" fill="url(#bg)"/>
  <rect width="512" height="512" rx="112" fill="none" stroke="#ffffff" stroke-opacity=".1" stroke-width="4"/>
  <g fill="url(#key)">
    <rect x="104" y="112" width="92" height="92" rx="24"/>
    <rect x="210" y="112" width="92" height="92" rx="24" opacity=".8"/>
    <rect x="316" y="112" width="92" height="92" rx="24" opacity=".55"/>
    <rect x="104" y="218" width="92" height="92" rx="24" opacity=".55"/>
    <rect x="210" y="218" width="92" height="92" rx="24"/>
    <rect x="316" y="218" width="92" height="92" rx="24" opacity=".8"/>
  </g>
  <rect x="104" y="348" width="304" height="56" rx="28" fill="#0b0f16" stroke="#22d3ee" stroke-opacity=".55" stroke-width="3"/>
  <circle cx="152" cy="376" r="13" fill="#22d3ee"/>
  <circle cx="222" cy="376" r="13" fill="#a78bfa"/>
  <circle cx="292" cy="376" r="13" fill="#f472b6"/>
  <circle cx="362" cy="376" r="13" fill="#34d399"/>
</svg>
